<svg xmlns="http://www.w3.org/2000/svg" width="100" height="100" viewBox="0 0 100 100">
    <g fill="none" fill-rule="nonzero">
        <path fill="#C9D2E3" d="M90.847 50.409l-9.146-23.05H81.7a1.372 1.372 0 0 0-2.55 0l-9.146 23.05a1.372 1.372 0 1 0 2.55 1.012l7.872-19.835 7.871 19.835a1.372 1.372 0 1 0 2.55-1.012z"/>
        <path fill="#FFD664" d="M89.572 49.543H71.28c-.757 0-1.371.614-1.371 1.372v3.292c0 4.791 3.898 8.69 8.688 8.69h3.659c4.791 0 8.69-3.899 8.69-8.69v-3.292c0-.758-.615-1.372-1.373-1.372z"/>
        <path fill="#F9C646" d="M89.572 49.543H85c.758 0 1.372.614 1.372 1.372v3.292c0 4.638-3.653 8.438-8.232 8.677.152.008.304.013.457.013h3.66c4.79 0 8.688-3.899 8.688-8.69v-3.292c0-.758-.614-1.372-1.372-1.372z"/>
        <path fill="#C9D2E3" d="M30.116 50.409l-9.146-23.05h-.002a1.372 1.372 0 0 0-2.549 0L9.273 50.41a1.372 1.372 0 0 0 2.55 1.012l7.872-19.835 7.87 19.835a1.373 1.373 0 1 0 2.55-1.012z"/>
        <path fill="#FFD664" d="M28.84 49.543H10.549c-.758 0-1.372.614-1.372 1.372v3.292c0 4.791 3.898 8.69 8.69 8.69h3.658c4.791 0 8.689-3.899 8.689-8.69v-3.292c0-.758-.614-1.372-1.372-1.372z"/>
        <path fill="#F9C646" d="M28.84 49.543h-4.572c.758 0 1.371.614 1.371 1.372v3.292c0 4.638-3.652 8.438-8.231 8.677.152.008.304.013.457.013h3.659c4.791 0 8.689-3.899 8.689-8.69v-3.292c0-.758-.614-1.372-1.372-1.372z"/>
        <path fill="#636363" d="M10.548 26.037c0 1.01.819 1.829 1.829 1.829h11.89c.776 0 1.52-.308 2.07-.858l7.74-7.74H50.06v-5.67H32.864c-.776 0-1.52.308-2.068.857l-7.741 7.74H12.377c-1.01 0-1.83.82-1.83 1.83v2.012zM89.572 26.037c0 1.01-.819 1.829-1.829 1.829h-11.89c-.776 0-1.52-.308-2.07-.858l-7.74-7.74H50.06v-5.67h17.195c.777 0 1.52.308 2.07.857l7.74 7.74h10.678c1.01 0 1.83.82 1.83 1.83v2.012z"/>
        <path fill="#C9D2E3" d="M53.352 78.171h-6.584V6.829C46.767 5.82 47.586 5 48.597 5h2.926c1.01 0 1.83.82 1.83 1.83V78.17z"/>
        <path fill="#ADBBD5" d="M50.792 5v11.341h-4.024v7.827a9.455 9.455 0 0 0 4.024.558v48.689c0 1.01-.82 1.829-1.83 1.829h-2.194v2.926h6.584V6.83c0-1.01-.818-1.83-1.829-1.83h-.731z"/>
        <path fill="#494949" d="M42.05 13.597a9.483 9.483 0 0 0-.397 3.11H33.37c-.485 0-.95.193-1.293.536l-7.205 7.205a2.926 2.926 0 0 1-2.069.857H10.548v.732c0 1.01.819 1.829 1.829 1.829h11.89c.776 0 1.52-.308 2.07-.857l7.74-7.74H50.06v-5.672h-8.01zM58.07 13.597a9.483 9.483 0 0 1 .397 3.11h8.281c.486 0 .95.193 1.294.536l7.204 7.205c.55.548 1.294.857 2.07.857h12.256v.732c0 1.01-.819 1.829-1.829 1.829h-11.89c-.776 0-1.52-.308-2.07-.857l-7.74-7.74H50.06v-5.672h8.01z"/>
        <path fill="#FFD664" d="M55.914 16.341a5.854 5.854 0 1 1-11.708 0 5.854 5.854 0 0 1 11.708 0z"/>
        <path fill="#F9C646" d="M52.776 11.156a5.853 5.853 0 0 1-7.901 7.901 5.853 5.853 0 1 0 7.901-7.901z"/>
        <path fill="#FFD664" d="M64.145 86.585h-28.17V81.83a3.658 3.658 0 0 1 3.658-3.658h20.854a3.658 3.658 0 0 1 3.658 3.658v4.756z"/>
        <path fill="#F9C646" d="M60.487 78.171h-3.11a3.658 3.658 0 0 1 3.658 3.658v4.756h3.11V81.83a3.658 3.658 0 0 0-3.658-3.658z"/>
        <path fill="#636363" d="M66.889 95H33.048a1.83 1.83 0 0 1-1.83-1.83v-2.926a3.658 3.658 0 0 1 3.659-3.658H65.06a3.658 3.658 0 0 1 3.658 3.658v2.927c0 1.01-.818 1.829-1.829 1.829z"/>
        <path fill="#494949" d="M65.06 86.585H61.4a3.659 3.659 0 0 1 3.659 3.659c0 .808-.655 1.464-1.463 1.464H31.218v1.463c0 1.01.82 1.829 1.83 1.829h33.841c1.01 0 1.83-.82 1.83-1.83v-2.926a3.659 3.659 0 0 0-3.66-3.659z"/>
    </g>
</svg>
