<svg xmlns="http://www.w3.org/2000/svg" width="100" height="100" viewBox="0 0 100 100">
    <g fill="none" fill-rule="nonzero">
        <path fill="#FFF" d="M14.639 36.876h5.842v42.353h-5.842z"/>
        <path fill="#DAE6EA" d="M78.899 36.876h5.842v42.353h-5.842z"/>
        <path fill="#9DAEB2" d="M16.099 36.876h65.72v42.353h-65.72z"/>
        <path fill="#738A8E" d="M16.1 36.876h65.72V79.23"/>
        <path fill="#FFF" d="M94.963 33.955a2.93 2.93 0 0 1-2.92 2.921H7.92A2.93 2.93 0 0 1 5 33.956c0-1.607 1.46-2.922 3.067-2.922h83.976a2.93 2.93 0 0 1 2.92 2.921z"/>
        <path fill="#DAE6EA" d="M94.963 33.955a2.93 2.93 0 0 1-2.92 2.921H7.92A2.93 2.93 0 0 1 5 33.956"/>
        <path fill="#FFF" d="M89.122 82.15a2.93 2.93 0 0 1-2.921 2.921H14.639a2.93 2.93 0 0 1-2.92-2.92 2.93 2.93 0 0 1 2.92-2.922H86.2a2.93 2.93 0 0 1 2.92 2.921z"/>
        <path fill="#DAE6EA" d="M89.122 82.15a2.93 2.93 0 0 1-2.921 2.921H14.639a2.93 2.93 0 0 1-2.92-2.92"/>
        <path fill="#FFF" d="M90.582 87.992a2.93 2.93 0 0 1-2.92 2.92H10.257a2.93 2.93 0 0 1-2.921-2.92 2.93 2.93 0 0 1 2.92-2.921h77.404a2.93 2.93 0 0 1 2.921 2.92z"/>
        <path fill="#DAE6EA" d="M90.582 87.992c0 1.752-1.168 2.92-2.92 2.92H10.257c-1.753 0-2.921-1.168-2.921-2.92M90.436 31.034l-33.152-18.84c-4.235-4.235-10.953-4.235-15.189 0L8.943 31.035h81.493z"/>
        <path fill="#24966A" d="M48.23 29.574v-2.337c-1.461 0-2.338-.438-3.068-.876l.73-2.19c.877.438 2.045.876 3.213.876 1.169 0 1.9-.438 1.9-1.169 0-.73-.585-1.168-2.046-1.752-2.044-.73-3.797-1.607-3.797-3.505 0-1.753 1.607-3.067 3.067-3.505v-3.067h2.921v2.92c1.46 0 1.899.293 2.483.585l-.73 2.19c-.438-.146-1.46-.73-2.775-.73s-1.753.584-1.753 1.023c0 .584.73 1.022 2.337 1.606 2.337.876 3.505 1.899 3.505 3.651 0 1.753-1.752 3.213-3.213 3.505v2.775H48.23z"/>
        <path fill="#FFF" d="M20.481 39.797h7.302v36.511h-7.302z"/>
        <path fill="#DAE6EA" d="M20.48 39.797h7.303v36.511"/>
        <g fill="#FFF">
            <path d="M29.243 75.578c0 .438-.292.73-.73.73h-8.762c-.439 0-.73-.292-.73-.73s.291-.73.73-.73h8.762c.438 0 .73.292.73.73zM45.308 39.797h7.302v36.511h-7.302z"/>
        </g>
        <path fill="#DAE6EA" d="M46.769 39.797h5.842v36.511"/>
        <g fill="#FFF">
            <path d="M54.363 75.578c0 .438-.438.73-.876.73h-9.055c-.438 0-.876-.292-.876-.73s.438-.73.876-.73h9.055c.438 0 .876.292.876.73zM70.136 39.797h7.302v36.511h-7.302z"/>
        </g>
        <path fill="#DAE6EA" d="M70.136 39.797h7.302v36.511"/>
        <path fill="#FFF" d="M78.899 75.578c0 .438-.293.73-.73.73h-8.763c-.438 0-.73-.292-.73-.73s.292-.73.73-.73h8.762c.438 0 .73.292.73.73z"/>
    </g>
</svg>
