<svg xmlns="http://www.w3.org/2000/svg" width="100" height="100" viewBox="0 0 100 100">
    <g fill="none" fill-rule="nonzero">
        <path fill="#F29F5C" d="M78.379 56.983l-2.282-18.536-4.276.527.002-.003-8.29-4.665a4.995 4.995 0 0 0-2.909-.621l-13.089 1.21a4.994 4.994 0 0 0-3.858 2.464l-9.225 15.88a2.194 2.194 0 0 0 1.122 3.154l.377.143a8.185 8.185 0 0 0 2.218.495L37 58.049l-2.339 2.037-6.651 5.674a2.842 2.842 0 0 0-.276 4.01l.675.773a3.652 3.652 0 0 0 5.152.352l2.542 2.916a3.646 3.646 0 0 0 5.152.351l2.539 2.916a3.648 3.648 0 0 0 3.203 1.226 3.629 3.629 0 0 0 1.952-.871l1.38 1.192a3.654 3.654 0 0 0 5.154.354l1.876-1.636L73.131 65.06l.017-.016 6.222-.006-.991-8.055z"/>
        <path fill="#D37D42" d="M71.62 60.269l-.018.016-15.77 12.282-1.877 1.637a3.654 3.654 0 0 1-5.154-.354l-1.38-1.193a3.628 3.628 0 0 1-1.952.872 3.648 3.648 0 0 1-3.203-1.226l-2.54-2.916a3.646 3.646 0 0 1-5.152-.352l-2.541-2.915a3.652 3.652 0 0 1-4.523.215 2.84 2.84 0 0 0 .225 3.435l.675.773a3.652 3.652 0 0 0 5.151.352l2.543 2.916a3.646 3.646 0 0 0 5.151.351l2.54 2.917a3.648 3.648 0 0 0 3.203 1.225 3.629 3.629 0 0 0 1.951-.871l1.38 1.192a3.654 3.654 0 0 0 5.155.354l1.876-1.636L73.13 65.06l.017-.016 6.223-.006-.689-5.592-7.063.823z"/>
        <path fill="#F9C295" d="M74.491 68.286l-8.45-7.285-2.35-2.025-1.68-1.448-7.23-6.232.835-7.107a4.905 4.905 0 0 0-3.564-5.3l-15.758-4.36a3.647 3.647 0 0 0-4.219 1.852l-1.981 3.869-8.507-.578-2.18 18.549-.946 8.06 8.28.55.017.016 17.299 14.911 1.885 1.627a3.654 3.654 0 0 0 5.153-.383l2.523-2.927a3.629 3.629 0 0 0 1.956.86 3.647 3.647 0 0 0 3.196-1.243l2.524-2.93a3.646 3.646 0 0 0 5.15-.38l2.525-2.93a3.652 3.652 0 0 0 5.15-.38l.67-.777a2.841 2.841 0 0 0-.298-4.009z"/>
        <g fill="#E59F6A">
            <path d="M74.491 68.286l-2.573-2.219a3.017 3.017 0 0 1-.125 3.783l-.712.825a3.877 3.877 0 0 1-5.467.403l-2.681 3.11a3.87 3.87 0 0 1-5.467.404l-2.678 3.11a3.872 3.872 0 0 1-3.394 1.32 3.85 3.85 0 0 1-2.076-.913l-2.678 3.108a3.851 3.851 0 0 1-1.838 1.184l1.14.984a3.654 3.654 0 0 0 5.153-.383l2.523-2.927a3.629 3.629 0 0 0 1.956.86 3.648 3.648 0 0 0 3.197-1.243l2.523-2.93a3.646 3.646 0 0 0 5.15-.38l2.525-2.93a3.652 3.652 0 0 0 5.15-.38l.67-.777a2.842 2.842 0 0 0-.298-4.009z"/>
            <path d="M69.825 72.476l-4.63-3.992a1.316 1.316 0 0 0-1.719 1.993l4.622 3.986.871-1.01c.348.299.737.517 1.144.664.3-.535.194-1.225-.288-1.64zM62.422 77.426a1.315 1.315 0 0 0-.274-1.663l-4.16-3.587a1.316 1.316 0 0 0-1.718 1.994l4.16 3.586.004.004.86-.998c.342.296.725.516 1.128.664z"/>
        </g>
        <g fill="#F29F5C">
            <path d="M27.173 66.813l-1.002 1.324a3.274 3.274 0 0 0 5.22 3.953l1.001-1.324a3.274 3.274 0 0 0-5.22-3.953z"/>
            <path d="M33.277 69.597l-1.887 2.492a3.274 3.274 0 0 0 5.22 3.953l1.887-2.493a3.274 3.274 0 0 0-5.22-3.953z"/>
            <path d="M39.181 72.645l-2.572 3.397a3.274 3.274 0 0 0 5.22 3.953l2.572-3.397a3.274 3.274 0 1 0-5.22-3.953z"/>
            <path d="M44.55 76.4l-2.722 3.594a3.274 3.274 0 0 0 5.22 3.953l2.721-3.594a3.274 3.274 0 0 0-5.22-3.953zM71.823 38.97l-8.29-4.664a4.995 4.995 0 0 0-2.909-.621l-13.089 1.21a4.994 4.994 0 0 0-3.858 2.464l-9.225 15.88a2.194 2.194 0 0 0 1.122 3.154l.377.143a8.203 8.203 0 0 0 9.403-2.676l3.534-4.6s8.497 9.837 17.851-1.65"/>
        </g>
        <path fill="#5C9CEE" d="M94.815 67.517l-4.336-35.22a1.316 1.316 0 0 0-1.466-1.145L78.874 32.4a4.817 4.817 0 0 0-4.187 5.363l3.481 28.281a4.818 4.818 0 0 0 5.364 4.188l10.138-1.248a1.316 1.316 0 0 0 1.145-1.467z"/>
        <path fill="#3580D3" d="M94.815 67.517l-.476-3.866c-.216.316-.56.543-.97.593L82.74 65.552a5.056 5.056 0 0 1-4.927-2.39l.354 2.882a4.818 4.818 0 0 0 5.363 4.187l10.139-1.248a1.316 1.316 0 0 0 1.145-1.466z"/>
        <path fill="#ED5575" d="M20.95 32.4l-10.138-1.248a1.315 1.315 0 0 0-1.466 1.145L5.01 67.517a1.316 1.316 0 0 0 1.145 1.466l10.138 1.248a4.819 4.819 0 0 0 5.363-4.188l3.482-28.28A4.817 4.817 0 0 0 20.95 32.4z"/>
        <path fill="#CC3A60" d="M5.01 67.517l.476-3.866c.216.316.56.543.97.593l10.628 1.308a5.056 5.056 0 0 0 4.927-2.39l-.354 2.882a4.818 4.818 0 0 1-5.363 4.187L6.155 68.983a1.316 1.316 0 0 1-1.145-1.466z"/>
        <g fill="#EBEEF2" transform="translate(10.614 59.246)">
            <circle cx="75.789" cy="2.632" r="2.544"/>
            <circle cx="2.665" cy="2.632" r="2.544"/>
        </g>
    </g>
</svg>
