<svg xmlns="http://www.w3.org/2000/svg" width="100" height="100" viewBox="0 0 100 100">
    <g fill="none" fill-rule="nonzero">
        <path fill="#EFEBDE" d="M77.603 26.724L55.88 5H7.776v90h69.827z"/>
        <g fill="#D5D0BB">
            <path d="M23.293 40.69h38.793a1.551 1.551 0 1 0 0-3.104H23.293a1.551 1.551 0 1 0 0 3.104zM23.293 28.276H38.81a1.551 1.551 0 1 0 0-3.104H23.293a1.551 1.551 0 1 0 0 3.104zM62.086 50H23.293a1.551 1.551 0 1 0 0 3.103h38.793a1.551 1.551 0 1 0 0-3.103zM62.086 62.414H23.293a1.551 1.551 0 1 0 0 3.103h38.793a1.551 1.551 0 1 0 0-3.103zM62.086 74.828H23.293a1.551 1.551 0 1 0 0 3.103h38.793a1.551 1.551 0 1 0 0-3.103z"/>
        </g>
        <path fill="#D5D0BB" d="M55.88 5v21.724h21.723z"/>
        <g transform="translate(55.103 57.759)">
            <circle cx="19.397" cy="18.621" r="18.621" fill="#26B999"/>
            <path fill="#FFF" d="M29.593 9.588a1.55 1.55 0 0 0-2.16.388l-8.684 12.476-6.127-5.03a1.55 1.55 0 0 0-2.184.215 1.549 1.549 0 0 0 .216 2.183l7.427 6.097a1.556 1.556 0 0 0 1.196.338 1.56 1.56 0 0 0 1.061-.65l9.643-13.855a1.555 1.555 0 0 0-.388-2.162z"/>
        </g>
    </g>
</svg>
