<svg xmlns="http://www.w3.org/2000/svg" width="100" height="100" viewBox="0 0 100 100">
    <g fill="none" fill-rule="nonzero">
        <path fill="#E4E4E4" d="M90.008 82.172H9.992A4.991 4.991 0 0 1 5 77.181V21.99A4.991 4.991 0 0 1 9.992 17h80.016A4.991 4.991 0 0 1 95 21.992V77.18a4.991 4.991 0 0 1-4.992 4.991z"/>
        <path fill="#5B7EFF" d="M37.875 60.662l-5.846-2.985a1.193 1.193 0 0 1-.65-1.061v-1.79c3-1.292 4.724-3.803 5.563-6.944 1.265-.392 2.196-1.562 2.196-2.951v-1.552c0-1.188-.684-2.214-1.673-2.735-.684-5.836-4.542-8.198-10.74-8.198-.294 0-.583.01-.865.034-2.107.168-4.24-.228-5.993-1.41-.73-.49-1.342-1.014-1.774-1.562a.31.31 0 0 0-.554.225c.063.544.156 1.177.292 1.869.512 2.576.207 2.2-.79 4.63-.55 1.344-.906 2.835-1.07 4.415-.981.526-1.66 1.548-1.66 2.732v1.552c0 1.389.93 2.559 2.195 2.951.84 3.14 2.562 5.652 5.563 6.944v1.777c0 .455-.258.87-.666 1.07l-5.99 2.95a5.09 5.09 0 0 0-2.654 4.47v2.056c0 1.753 6.252 2.61 13.965 2.61 7.714 0 13.966-.857 13.966-2.61v-1.932a5.093 5.093 0 0 0-2.815-4.555z"/>
        <g fill="#393844">
            <path d="M50 38.724h15.517a1.55 1.55 0 0 0 1.552-1.552 1.55 1.55 0 0 0-1.552-1.551H50a1.55 1.55 0 0 0-1.552 1.551A1.55 1.55 0 0 0 50 38.724zM71.724 38.724h1.552a1.55 1.55 0 0 0 1.552-1.552 1.55 1.55 0 0 0-1.552-1.551h-1.552a1.55 1.55 0 0 0-1.552 1.551 1.55 1.55 0 0 0 1.552 1.552zM51.552 62H50a1.55 1.55 0 0 0-1.552 1.552A1.55 1.55 0 0 0 50 65.103h1.552a1.55 1.55 0 0 0 1.551-1.551A1.55 1.55 0 0 0 51.552 62zM60.862 62H57.76a1.55 1.55 0 0 0-1.552 1.552 1.55 1.55 0 0 0 1.552 1.551h3.103a1.55 1.55 0 0 0 1.552-1.551A1.55 1.55 0 0 0 60.862 62zM68.62 62H67.07a1.55 1.55 0 0 0-1.552 1.552 1.55 1.55 0 0 0 1.552 1.551h1.552a1.55 1.55 0 0 0 1.551-1.551A1.55 1.55 0 0 0 68.621 62zM77.931 62h-3.103a1.55 1.55 0 0 0-1.552 1.552 1.55 1.55 0 0 0 1.552 1.551h3.103a1.55 1.55 0 0 0 1.552-1.551A1.55 1.55 0 0 0 77.93 62zM83.036 62.45c-.28.293-.45.698-.45 1.102 0 .403.17.807.45 1.101.293.28.698.45 1.102.45.403 0 .807-.17 1.102-.45.279-.294.45-.698.45-1.101 0-.404-.171-.809-.45-1.102-.59-.574-1.63-.574-2.204 0zM50 48.034h34.138a1.55 1.55 0 0 0 1.552-1.551 1.55 1.55 0 0 0-1.552-1.552H50a1.55 1.55 0 0 0-1.552 1.552A1.55 1.55 0 0 0 50 48.034zM84.138 54.241H50a1.55 1.55 0 0 0-1.552 1.552A1.55 1.55 0 0 0 50 57.345h34.138a1.55 1.55 0 0 0 1.552-1.552 1.55 1.55 0 0 0-1.552-1.552z"/>
        </g>
    </g>
</svg>
