<svg xmlns="http://www.w3.org/2000/svg" width="100" height="100" viewBox="0 0 100 100">
    <g fill="none" fill-rule="nonzero" transform="translate(5 5)">
        <circle cx="44.922" cy="44.922" r="44.922" fill="#3DB39E"/>
        <path fill="#37A18E" d="M82.544 20.425L42.816 61.557l.07 4.422h1.825l43.027-34.674c-1.264-3.86-3.018-7.58-5.194-10.88z"/>
        <path fill="#F2F1EF" d="M89.001 18.46L81.07 10.6c-1.053-1.053-2.808-1.053-3.93 0L43.236 45.624l-14.67-14.46c-1.052-1.052-2.807-1.052-3.93 0l-7.02 6.95c-1.052 1.052-1.052 2.807 0 3.86l23.444 23.233c.632.632 1.474.842 2.317.772.842.07 1.684-.14 2.316-.772L89.001 22.39c1.053-1.123 1.053-2.878 0-3.93z"/>
        <path fill="#E6E5E3" d="M45.694 65.207L89.001 22.39c1.053-1.053 1.053-2.808 0-3.86l-1.263-1.194-44.43 43.658L18.74 37.061l-1.053 1.052c-1.053 1.053-1.053 2.808 0 3.861l23.444 23.233c.631.632 1.474.842 2.316.772.772.07 1.614-.14 2.246-.772z"/>
    </g>
</svg>
