<svg xmlns="http://www.w3.org/2000/svg" width="100" height="100" viewBox="0 0 100 100">
    <g fill="none" fill-rule="nonzero" transform="translate(5 5)">
        <path fill="#EF487D" d="M90 45a44.803 44.803 0 0 1-8.816 26.758 45.27 45.27 0 0 1-6.98 7.479A44.815 44.815 0 0 1 45 90a44.823 44.823 0 0 1-29.204-10.763 45.27 45.27 0 0 1-6.98-7.48A44.803 44.803 0 0 1 0 45a44.803 44.803 0 0 1 8.816-26.758 45.24 45.24 0 0 1 12.91-11.764A44.778 44.778 0 0 1 45.177.002c8.453.031 16.355 2.391 23.097 6.476a45.24 45.24 0 0 1 12.91 11.764A44.802 44.802 0 0 1 90 45z"/>
        <path fill="#FF668C" d="M83.78 38.78a38.61 38.61 0 0 1-7.598 23.059 39.025 39.025 0 0 1-6.014 6.446A38.62 38.62 0 0 1 45 77.56a38.628 38.628 0 0 1-25.167-9.276 39.004 39.004 0 0 1-6.015-6.445 38.61 38.61 0 0 1-7.598-23.06 38.61 38.61 0 0 1 7.598-23.058A38.99 38.99 0 0 1 24.944 5.583 38.588 38.588 0 0 1 45 0a38.564 38.564 0 0 1 20.056 5.583A38.985 38.985 0 0 1 76.182 15.72 38.61 38.61 0 0 1 83.78 38.78z"/>
        <path fill="#343A6E" d="M81.184 13.166v58.591a45.27 45.27 0 0 1-6.98 7.48A44.814 44.814 0 0 1 45 90a44.823 44.823 0 0 1-29.204-10.763 45.27 45.27 0 0 1-6.98-7.48V13.166a6.687 6.687 0 0 1 6.688-6.688h58.992a6.687 6.687 0 0 1 6.688 6.688z"/>
        <path fill="#F0F0F0" d="M74.204 25.755v53.482A44.815 44.815 0 0 1 45 90a44.823 44.823 0 0 1-29.204-10.763V25.755a4.214 4.214 0 0 1 4.213-4.215h49.98a4.215 4.215 0 0 1 4.215 4.215z"/>
        <path fill="#F2AE5A" d="M62.908 8.276V20.11a4 4 0 0 1-4.003 4.002H31.094a4 4 0 0 1-4.003-4.002V8.276a4 4 0 0 1 4.003-4.002h7.001a7.713 7.713 0 0 1 13.81 0h7a4 4 0 0 1 4.003 4.002z"/>
        <path fill="#F9DF73" d="M62.908 8.276V20.11a4 4 0 0 1-4.003 4.002H33.85a4 4 0 0 1-4.003-4.002V8.276a4 4 0 0 1 4.003-4.002h4.246a7.713 7.713 0 0 1 13.39-.733c.118.19.22.364.305.517.042.077.08.15.114.216h7.002a4 4 0 0 1 4.002 4.002z"/>
        <circle cx="45" cy="6.295" r="2.663" fill="#343A6E"/>
        <path fill="#F2AE5A" d="M54.918 18.233H35.08a1.929 1.929 0 0 1 0-3.857h19.837a1.928 1.928 0 1 1 0 3.857z"/>
        <path fill="#5897D1" d="M33.428 46.519H21.857a1.837 1.837 0 0 1-1.837-1.837V33.111c0-1.015.823-1.837 1.837-1.837h11.571c1.015 0 1.837.822 1.837 1.837v11.571a1.837 1.837 0 0 1-1.837 1.837zm-9.734-3.674h7.898v-7.898h-7.898v7.898z"/>
        <g fill="#484B7F">
            <path d="M51.98 37.152H40.408a1.837 1.837 0 0 1 0-3.674H51.98a1.837 1.837 0 0 1 0 3.674zM66.306 44.315H40.408a1.837 1.837 0 0 1 0-3.673h25.898a1.837 1.837 0 1 1 0 3.673z"/>
        </g>
        <path fill="#5897D1" d="M33.428 66.356H21.857a1.837 1.837 0 0 1-1.837-1.837V52.947c0-1.014.823-1.836 1.837-1.836h11.571c1.015 0 1.837.822 1.837 1.836V64.52a1.837 1.837 0 0 1-1.837 1.837zm-9.734-3.674h7.898v-7.898h-7.898v7.898z"/>
        <g fill="#484B7F">
            <path d="M51.98 56.988H40.408a1.837 1.837 0 0 1 0-3.673H51.98a1.837 1.837 0 0 1 0 3.673zM66.306 64.152H40.408a1.837 1.837 0 0 1 0-3.674h25.898a1.837 1.837 0 1 1 0 3.674z"/>
        </g>
        <path fill="#5897D1" d="M33.428 70.948H21.857a1.837 1.837 0 0 0-1.837 1.836v9.65a44.73 44.73 0 0 0 6.838 3.759h6.57a1.837 1.837 0 0 0 1.837-1.837V72.784a1.837 1.837 0 0 0-1.837-1.836zm-1.836 11.57h-7.898v-7.897h7.898v7.898z"/>
        <g fill="#484B7F">
            <path d="M51.98 76.825H40.408a1.837 1.837 0 0 1 0-3.673H51.98a1.837 1.837 0 0 1 0 3.673zM66.306 83.988H40.408a1.837 1.837 0 0 1 0-3.673h25.898a1.837 1.837 0 1 1 0 3.673z"/>
        </g>
        <path fill="#EF487D" d="M27.55 64.702c-.61 0-1.185-.304-1.527-.817l-5.878-8.817a1.837 1.837 0 1 1 3.057-2.037l4.078 6.117 5.224-11.028a1.837 1.837 0 1 1 3.32 1.573L29.21 63.652a1.837 1.837 0 0 1-1.66 1.05z"/>
    </g>
</svg>
