<svg xmlns="http://www.w3.org/2000/svg" width="120" height="177" viewBox="0 0 120 177">
    <g fill="none" fill-rule="evenodd">
        <path fill="#9A3E4A" d="M1 0h113a6 6 0 0 1 6 6v164.766a6 6 0 0 1-6 6H1a1 1 0 0 1-1-1V1a1 1 0 0 1 1-1z"/>
        <path fill="#FBF4A5" d="M64.268 72.126a13.699 13.699 0 0 0-15.337 2.997c-3.543 3.632-4.747 9.034-3.162 13.854 2.65 8.063 11.673 11.293 18.808 8.003.64-.296 1.185.58.638 1.026-5.64 4.598-13.615 5.186-20.009 1.058-7.375-4.764-9.994-14.505-5.927-22.286 4.7-8.994 15.954-11.892 24.35-6.577.435.275.856.568 1.262.88.584.447.05 1.341-.623 1.045zm4.62 12.216l4.912-1.596v-5.15c0-.337.43-.477.63-.205l3.026 4.167 4.88-1.586a.354.354 0 0 1 .395.545l-3.016 4.15 3.013 4.147a.355.355 0 0 1-.396.547l-4.876-1.584-3.009 4.142a.358.358 0 0 1-.647-.211V86.59l-4.913-1.597a.342.342 0 0 1 0-.65z"/>
        <path fill="#FBF4A5" fill-rule="nonzero" d="M20.31 18.944v1.099h-1.856v5.107h-1.306v-5.107h-1.865v-1.1h5.027zm.251 0h1.318v3.814c0 .427.05.738.151.935.158.348.5.522 1.028.522.525 0 .866-.174 1.023-.522.1-.197.151-.508.151-.935v-3.814h1.318v3.814c0 .66-.102 1.174-.307 1.541-.382.674-1.11 1.01-2.185 1.01s-1.805-.336-2.19-1.01c-.205-.367-.307-.881-.307-1.54v-3.815zm2.787-1.575h1.1v.998h-1.1v-.998zm-1.684 0h1.099v.998h-1.099v-.998zm5.914 2.653v1.667h1.47c.291 0 .51-.034.656-.101.258-.118.387-.351.387-.7 0-.375-.125-.628-.374-.757-.14-.073-.351-.11-.632-.11h-1.507zm1.776-1.078c.435.008.77.061 1.005.16.234.098.433.242.595.433.135.158.242.332.32.522.079.191.118.409.118.653 0 .295-.074.585-.223.87-.149.284-.394.486-.737.604.287.115.49.278.609.49.119.212.179.536.179.97v.417c0 .284.01.476.033.577.034.16.113.278.236.354v.156h-1.427a3.056 3.056 0 0 1-.139-.867l-.009-.577c-.005-.396-.078-.66-.216-.792-.14-.132-.4-.198-.781-.198h-1.34v2.434H26.31v-6.206h3.044zm2.668 0h1.276v2.555l2.395-2.555h1.676l-2.543 2.555 2.673 3.65h-1.667l-1.916-2.71-.618.635v2.076h-1.276v-6.206zm6.886 6.206H37.62v-6.206h1.288v6.206zm-1.192-7.903h1.095v.998h-1.095v-.998zm5.434 1.697h1.47l-2.076 3.873v2.333h-1.297v-2.333L39.1 18.944h1.528l1.288 2.703 1.234-2.703zm6.292 1.099h-3.284v1.317h3.015v1.078h-3.015v1.596h3.436v1.116h-4.703v-6.206h4.551v1.099zm2.274 2.054c0-1.083.29-1.918.872-2.505.505-.51 1.148-.766 1.928-.766 1.044 0 1.808.342 2.29 1.027.267.385.41.77.43 1.158h-1.297c-.084-.298-.192-.522-.324-.674-.236-.27-.585-.404-1.048-.404a1.3 1.3 0 0 0-1.116.57c-.272.38-.409.92-.409 1.615 0 .696.144 1.218.432 1.564.288.347.653.52 1.097.52.455 0 .801-.148 1.04-.446.132-.16.241-.4.328-.72h1.284c-.112.677-.399 1.227-.86 1.65-.462.424-1.054.636-1.775.636-.893 0-1.595-.286-2.106-.859-.51-.575-.766-1.364-.766-2.366zm5.99-3.153h1.317v3.814c0 .427.05.738.152.935.157.348.5.522 1.027.522.525 0 .866-.174 1.023-.522.101-.197.152-.508.152-.935v-3.814h1.318v3.814c0 .66-.103 1.174-.308 1.541-.381.674-1.11 1.01-2.185 1.01s-1.805-.336-2.19-1.01c-.204-.367-.306-.881-.306-1.54v-3.815zm9.833 0h1.865v6.206h-1.208v-4.198c0-.12.001-.29.004-.507.003-.218.004-.386.004-.503L67.03 25.15h-1.258l-1.167-5.208.004.503c.003.217.005.386.005.507v4.198h-1.209v-6.206h1.887l1.128 4.88 1.12-4.88zm2.554 6.206v-6.206h1.284v2.366h2.425v-2.366h1.288v6.206h-1.288v-2.77h-2.425v2.77h-1.284zm5.728-6.206h1.318v3.814c0 .427.05.738.151.935.157.348.5.522 1.028.522.524 0 .865-.174 1.023-.522.1-.197.151-.508.151-.935v-3.814h1.318v3.814c0 .66-.102 1.174-.307 1.541-.382.674-1.11 1.01-2.185 1.01s-1.805-.336-2.19-1.01c-.205-.367-.307-.881-.307-1.54v-3.815zm7.016 1.078v1.667h1.47c.292 0 .51-.034.657-.101.258-.118.387-.351.387-.7 0-.375-.125-.628-.375-.757-.14-.073-.35-.11-.631-.11h-1.508zm1.777-1.078c.435.008.77.061 1.004.16.235.098.433.242.596.433.135.158.242.332.32.522.079.191.118.409.118.653 0 .295-.074.585-.223.87-.149.284-.394.486-.737.604.286.115.49.278.608.49.12.212.18.536.18.97v.417c0 .284.01.476.033.577.034.16.112.278.236.354v.156h-1.427a3.056 3.056 0 0 1-.139-.867l-.009-.577c-.005-.396-.078-.66-.217-.792s-.399-.198-.78-.198h-1.34v2.434H81.57v-6.206h3.044zm3.834 6.206H87.16v-6.206h1.288v6.206zm-1.192-7.903h1.095v.998h-1.095v-.998zm5.434 1.697h1.47l-2.076 3.873v2.333h-1.297v-2.333l-2.147-3.873h1.528l1.288 2.703 1.234-2.703zm6.292 1.099h-3.284v1.317h3.015v1.078h-3.015v1.596h3.436v1.116H94.43v-6.206h4.551v1.099zm5.164-1.1v1.1h-1.856v5.107h-1.305v-5.107h-1.866v-1.1h5.027zm1.438 6.207h-1.288v-6.206h1.288v6.206zm-1.191-7.903h1.095v.998h-1.095v-.998zM42.543 124.391c0-.322-.084-.553-.254-.69-.17-.138-.408-.206-.714-.206h-1.208v1.827h1.208c.306 0 .544-.075.714-.223.17-.15.254-.385.254-.708zm1.285-.008c0 .733-.186 1.25-.556 1.554-.37.303-.9.454-1.587.454h-1.318v2.232h-1.289v-6.206h2.703c.624 0 1.12.16 1.49.48.371.32.557.815.557 1.486zm1.526 1.895h1.575l-.775-2.442-.8 2.442zm.08-3.861h1.465l2.198 6.206h-1.406l-.4-1.276h-2.286l-.43 1.276H43.22l2.215-6.206zm4.882 4.29c.04.284.116.495.232.636.21.255.57.383 1.082.383.306 0 .554-.034.745-.101.362-.13.543-.37.543-.72a.531.531 0 0 0-.27-.476c-.18-.11-.461-.206-.846-.29l-.657-.148c-.645-.146-1.091-.304-1.338-.475-.419-.287-.628-.734-.628-1.344 0-.555.202-1.017.606-1.385.405-.367.998-.551 1.781-.551.654 0 1.212.173 1.674.52.462.346.704.85.726 1.51H52.72c-.022-.374-.185-.64-.488-.797-.202-.104-.454-.155-.754-.155-.334 0-.6.067-.8.202a.644.644 0 0 0-.299.564c0 .222.098.387.295.497.126.073.396.158.808.256l1.07.257c.468.113.822.263 1.06.45.371.293.556.715.556 1.268 0 .567-.216 1.038-.65 1.413-.434.374-1.046.562-1.838.562-.808 0-1.444-.185-1.907-.554-.463-.369-.695-.876-.695-1.522h1.238zm6.002-.43h1.575l-.775-2.441-.8 2.442zm.08-3.86h1.465l2.198 6.206h-1.406l-.4-1.276h-2.287l-.429 1.276h-1.356l2.215-6.206zm7.438 1.974c0-.322-.085-.553-.255-.69-.17-.138-.408-.206-.714-.206H61.66v1.827h1.208c.306 0 .544-.075.714-.223.17-.15.255-.385.255-.708zm1.284-.008c0 .733-.185 1.25-.556 1.554-.37.303-.9.454-1.587.454h-1.318v2.232H60.37v-6.206h2.703c.623 0 1.12.16 1.49.48.37.32.556.815.556 1.486zm3.21 3.313c.514 0 .922-.189 1.223-.568.302-.379.453-.918.453-1.617 0-.696-.15-1.234-.453-1.614-.301-.38-.71-.57-1.223-.57-.513 0-.923.189-1.23.568-.305.378-.458.917-.458 1.616 0 .7.153 1.238.459 1.617.306.379.716.568 1.23.568zm2.973-2.185c0 1.115-.313 1.968-.94 2.56-.468.483-1.146.724-2.033.724s-1.565-.241-2.033-.724c-.63-.592-.943-1.445-.943-2.56 0-1.136.314-1.99.943-2.56.468-.482 1.146-.724 2.033-.724s1.565.242 2.034.724c.626.57.939 1.424.939 2.56zm1.779-2.016v1.667h1.47c.291 0 .51-.034.656-.101.258-.118.387-.351.387-.7 0-.375-.125-.628-.374-.757-.14-.073-.351-.11-.632-.11h-1.507zm1.776-1.078c.436.008.77.061 1.005.16.234.098.433.243.595.433.135.158.242.332.32.522.079.191.118.409.118.653 0 .295-.074.585-.223.87-.149.284-.394.486-.737.604.287.115.49.278.609.49.119.212.179.536.179.97v.417c0 .284.01.476.033.577.034.16.113.278.236.354v.156h-1.427a3.056 3.056 0 0 1-.139-.867l-.009-.577c-.005-.396-.077-.66-.216-.792-.14-.132-.4-.198-.781-.198h-1.34v2.434h-1.267v-6.206h3.044zm7.156 0v1.099h-1.857v5.107h-1.305v-5.107h-1.865v-1.1h5.027zM44.933 138.03c0-.268-.071-.46-.213-.575-.141-.114-.34-.172-.594-.172h-1.007v1.523h1.007c.255 0 .453-.062.594-.186.142-.124.213-.32.213-.59zm1.07-.006c0 .61-.155 1.042-.463 1.294-.31.253-.75.38-1.323.38h-1.098v1.859h-1.074v-5.172h2.253c.519 0 .933.134 1.242.4.308.267.463.68.463 1.239zm1.272 1.579h1.312l-.646-2.035-.666 2.035zm.066-3.218h1.221l1.832 5.172h-1.172l-.333-1.063h-1.906l-.357 1.063h-1.13l1.845-5.172zm4.069 3.575c.032.237.097.413.193.53.175.213.476.32.901.32.255 0 .462-.029.621-.085.302-.107.453-.307.453-.6a.443.443 0 0 0-.225-.396c-.15-.091-.384-.172-.705-.242l-.547-.123c-.538-.122-.91-.254-1.116-.396-.348-.24-.523-.612-.523-1.12 0-.463.169-.848.506-1.154.336-.306.831-.46 1.484-.46.545 0 1.01.145 1.394.434.385.289.587.708.606 1.257h-1.039c-.019-.31-.154-.532-.407-.663a1.365 1.365 0 0 0-.628-.13c-.278 0-.5.057-.667.169a.536.536 0 0 0-.249.47c0 .185.082.323.246.414.105.06.33.132.674.214l.89.214c.391.094.686.219.885.376.309.243.463.595.463 1.056 0 .472-.18.865-.542 1.177-.361.312-.872.468-1.532.468-.673 0-1.203-.154-1.589-.461-.386-.308-.579-.73-.579-1.269h1.032zm4.37 0c.032.237.097.413.193.53.175.213.476.32.901.32.255 0 .462-.029.621-.085.302-.107.453-.307.453-.6a.443.443 0 0 0-.224-.396c-.15-.091-.385-.172-.706-.242l-.547-.123c-.538-.122-.91-.254-1.116-.396-.348-.24-.523-.612-.523-1.12 0-.463.169-.848.506-1.154.336-.306.831-.46 1.484-.46.545 0 1.01.145 1.394.434.385.289.587.708.606 1.257h-1.039c-.019-.31-.154-.532-.407-.663a1.365 1.365 0 0 0-.628-.13c-.278 0-.5.057-.667.169a.536.536 0 0 0-.249.47c0 .185.082.323.246.414.105.06.33.132.674.214l.89.214c.391.094.686.219.885.376.309.243.463.595.463 1.056 0 .472-.18.865-.542 1.177-.361.312-.872.468-1.531.468-.674 0-1.204-.154-1.59-.461-.386-.308-.579-.73-.579-1.269h1.032zm6.5-1.93c0-.268-.071-.46-.213-.575-.141-.114-.34-.172-.594-.172h-1.007v1.523h1.007c.255 0 .453-.062.594-.186.142-.124.213-.32.213-.59zm1.07-.006c0 .61-.155 1.042-.463 1.294-.31.253-.75.38-1.323.38h-1.098v1.859h-1.074v-5.172h2.252c.52 0 .934.134 1.243.4.308.267.463.68.463 1.239zm2.675 2.761c.428 0 .768-.158 1.02-.474.25-.315.377-.765.377-1.347 0-.58-.126-1.029-.378-1.346-.251-.316-.59-.475-1.019-.475-.428 0-.77.158-1.024.474-.255.315-.383.765-.383 1.347s.128 1.032.383 1.347c.255.316.596.474 1.024.474zm2.477-1.821c0 .929-.26 1.64-.782 2.133-.39.403-.956.604-1.695.604-.74 0-1.304-.201-1.695-.604-.524-.493-.786-1.204-.786-2.133 0-.947.262-1.658.786-2.133.391-.403.956-.604 1.695-.604.74 0 1.304.201 1.695.604.521.475.782 1.186.782 2.133zm1.483-1.68v1.389h1.224c.243 0 .426-.028.547-.084.216-.099.323-.293.323-.583 0-.313-.104-.524-.312-.631-.117-.061-.292-.092-.526-.092h-1.256zm1.48-.899c.363.007.642.052.837.134.195.081.36.202.497.36.112.132.2.277.266.436.066.159.098.34.098.544 0 .245-.062.487-.186.724-.123.238-.328.406-.614.504.24.096.408.232.507.409.1.176.15.446.15.808v.348c0 .236.009.396.028.48a.432.432 0 0 0 .196.295v.13h-1.19a2.547 2.547 0 0 1-.116-.723l-.006-.48c-.005-.33-.065-.55-.18-.66-.117-.11-.333-.165-.652-.165h-1.115v2.028h-1.056v-5.172h2.536zm5.963 0v.916h-1.547v4.256h-1.088V137.3H73.24v-.916h4.19zM26 33.81v1.39h1.225c.243 0 .426-.028.547-.084.215-.099.323-.293.323-.583 0-.313-.104-.524-.312-.631-.117-.061-.293-.092-.526-.092H26zm1.481-.898c.363.007.642.052.837.133.195.082.36.203.496.362.113.13.201.276.267.435.065.159.098.34.098.544 0 .245-.062.487-.186.724-.124.238-.328.406-.614.504.239.096.408.232.507.409.1.176.15.446.15.808v.348c0 .236.009.396.027.48a.432.432 0 0 0 .197.295v.13h-1.19a2.547 2.547 0 0 1-.116-.723l-.006-.48c-.005-.33-.065-.55-.181-.66-.116-.11-.333-.165-.65-.165H26v2.028h-1.056v-5.172h2.537zm6.03.916h-2.737v1.098h2.512v.898h-2.512v1.33h2.863v.93h-3.92v-5.172h3.794v.916zm3.458.73c0-.27-.071-.461-.213-.576-.141-.114-.34-.172-.594-.172h-1.007v1.523h1.007c.255 0 .453-.062.594-.186.142-.124.213-.32.213-.59zm1.07-.007c0 .61-.155 1.042-.463 1.294-.31.253-.75.38-1.323.38h-1.098v1.859H34.08v-5.172h2.252c.52 0 .934.133 1.243.4.308.267.463.68.463 1.239zm.387-1.639h1.099v3.179c0 .355.042.615.126.779.131.29.416.435.856.435.437 0 .722-.145.853-.435.084-.164.126-.424.126-.78v-3.178h1.098v3.179c0 .55-.085.978-.256 1.284-.318.561-.925.842-1.82.842-.897 0-1.505-.28-1.825-.842-.171-.306-.257-.734-.257-1.284v-3.179zm5.816.898v1.14h1.27c.227 0 .411-.042.553-.127.141-.086.212-.237.212-.455 0-.24-.093-.4-.28-.477a1.986 1.986 0 0 0-.618-.08h-1.137zm0 1.997v1.379h1.27c.227 0 .404-.03.53-.092.23-.112.344-.327.344-.645 0-.27-.111-.454-.333-.555-.124-.056-.299-.085-.523-.087h-1.288zm1.48-2.895c.635.01 1.084.193 1.348.551.16.22.239.483.239.79 0 .315-.08.569-.239.76-.089.108-.22.207-.393.296.264.095.464.247.598.456.135.208.202.46.202.758 0 .306-.077.58-.232.824a1.43 1.43 0 0 1-.956.667c-.225.046-.47.07-.735.07h-2.343v-5.172h2.512zm2.238 0h1.08v4.242h2.562v.93H47.96v-5.172zm4.956 5.172h-1.074v-5.172h1.074v5.172zm.36-2.544c0-.903.241-1.599.726-2.088.42-.425.956-.638 1.607-.638.87 0 1.506.285 1.908.856.222.32.342.642.358.965h-1.08c-.07-.248-.16-.435-.27-.562-.197-.224-.488-.336-.874-.336-.393 0-.703.158-.93.475-.227.317-.34.766-.34 1.346 0 .58.12 1.014.36 1.303.239.289.544.433.913.433.38 0 .668-.124.867-.372.11-.133.2-.333.273-.6h1.07c-.093.564-.332 1.023-.717 1.376-.385.353-.878.53-1.479.53-.744 0-1.328-.239-1.754-.716-.426-.48-.639-1.137-.639-1.972zm8.852 1.772c.428 0 .768-.158 1.019-.474.251-.315.377-.765.377-1.347 0-.58-.126-1.029-.377-1.346-.251-.317-.591-.475-1.02-.475-.427 0-.769.158-1.024.474-.255.315-.382.765-.382 1.347s.127 1.032.382 1.347c.255.316.597.474 1.025.474zm2.477-1.821c0 .929-.261 1.64-.783 2.133-.39.403-.955.604-1.694.604-.74 0-1.304-.201-1.695-.604-.524-.493-.786-1.204-.786-2.133 0-.947.262-1.658.786-2.133.39-.403.956-.604 1.695-.604.739 0 1.304.201 1.694.604.522.475.783 1.186.783 2.133zm.402-2.572h3.666v.909H66.08v1.19h2.27v.898h-2.27v2.168h-1.073v-5.165zm9.298-.007v.916h-1.548v4.256H71.67v-4.256h-1.555v-.916h4.19zm.209 0h1.098v3.179c0 .355.042.615.126.779.131.29.416.435.856.435.438 0 .722-.145.853-.435.084-.164.126-.424.126-.78v-3.178h1.098v3.179c0 .55-.085.978-.256 1.284-.318.561-.925.842-1.82.842-.897 0-1.505-.28-1.825-.842-.171-.306-.256-.734-.256-1.284v-3.179zm5.847.898v1.39h1.224c.244 0 .426-.028.548-.084.215-.099.322-.293.322-.583 0-.313-.104-.524-.312-.631-.117-.061-.292-.092-.526-.092H80.36zm1.48-.898c.363.007.642.052.837.133.195.082.361.203.497.362.112.13.2.276.266.435.066.159.099.34.099.544 0 .245-.062.487-.186.724-.124.238-.33.406-.614.504.238.096.407.232.507.409.099.176.149.446.149.808v.348c0 .236.009.396.028.48a.432.432 0 0 0 .196.295v.13h-1.19a2.547 2.547 0 0 1-.116-.723l-.006-.48c-.005-.33-.065-.55-.18-.66-.116-.11-.333-.165-.652-.165h-1.115v2.028h-1.056v-5.172h2.536zm2.223 0h1.063v2.13l1.997-2.13h1.396l-2.12 2.13 2.229 3.042h-1.39l-1.596-2.26-.516.53v1.73h-1.063v-5.172zm8.574.916H89.9v1.098h2.512v.898h-2.512v1.33h2.863v.93h-3.92v-5.172h3.794v.916zm3.496-.916h1.224l-1.73 3.228v1.944h-1.08V36.14l-1.79-3.228h1.274l1.074 2.253 1.028-2.253z"/>
        <path fill="#FBF4A5" d="M53.174 156.647h14.371v3.593H53.174zM53.174 161.677h14.371v3.593H53.174z"/>
        <path fill="#9A3E4A" fill-rule="nonzero" d="M60.36 164.55a3.593 3.593 0 1 1 0-7.185 3.593 3.593 0 0 1 0 7.186zm0-1.436a2.156 2.156 0 1 0 0-4.312 2.156 2.156 0 0 0 0 4.312z"/>
        <path fill="#FBF4A5" fill-rule="nonzero" d="M60.36 163.114a2.156 2.156 0 1 0 0-4.312 2.156 2.156 0 0 0 0 4.312z"/>
    </g>
</svg>
